# xmcd
#
# Track frame offsets:
#	150
#	13067
#	32525
#	43395
#	67477
#
# Disc length: 1200 seconds
#
# Revision: 0
# Processed by: cddbd v1.5.2PL0 Copyright (c) Steve Scherf et al.
# Submitted via: EZCDAudioConverter 7.0.0.1
#
DISCID=4604ae05
DTITLE=KT Tunstall - Black Horse and The Cherry Tree
DYEAR=2005
DGENRE=country
TTITLE0=Black Horse and The Cherry Tree 105 2005
TTITLE1=One Day (live)  2005
TTITLE2=Barbie  2005
TTITLE3=Black Horse and The Cherry Tree (instrumental) 105 2005
TTITLE4=COPY CONTROL BULLSHIT
EXTD=
EXTT0=
EXTT1=
EXTT2=
EXTT3=
EXTT4=
PLAYORDER=
